<?xml version="1.0" encoding="utf-8"?> 
<svg version="1.1" id="Layer_1" xmlns="http://www.w3.org/2000/svg" xmlns:xlink="http://www.w3.org/1999/xlink" x="0px" y="0px"
	 viewBox="0 0 274.7 95.7" style="enable-background:new 0 0 274.7 95.7;" xml:space="preserve">
<style type="text/css">
	.st0{fill-rule:evenodd;clip-rule:evenodd;fill:#5463FF;stroke:#5463FF;stroke-width:0.7087;stroke-linecap:round;}
	.st1{fill-rule:evenodd;clip-rule:evenodd;fill:#EC615B;stroke:#EC615B;stroke-width:0.7087;stroke-linecap:round;}
</style>
<g id="svgGroup">
	<path id="_x30_" vector-effect="non-scaling-stroke" class="st0" d="M40.9,33.2l11.8,0.1l-8.2,37.6c-0.4,2.1-1,4.1-1.6,6.1
		c-0.5,1.4-1,2.9-1.6,4.3c-0.7,1.6-1.4,3.1-2.3,4.5c-0.7,1.2-1.6,2.3-2.5,3.3c-1.9,2.1-4.2,3.8-6.9,4.9c-1.6,0.7-3.3,1.2-5.1,1.5
		c-1.4,0.2-2.7,0.3-4.1,0.3c-2.3,0-4.3-0.2-5.9-0.7c-0.5-0.1-1-0.3-1.5-0.5c-0.9-0.3-1.7-0.8-2.5-1.3c-0.8-0.5-1.6-1.1-2.3-1.8
		c-1.2-1.3-2.1-2.7-2.6-4.3C5.2,85.5,5,83.8,5,82.1s0.2-3.4,0.7-5.1c0.5-1.6,1.2-3.1,2.3-4.4c1.1-1.3,2.4-2.3,4.1-3.2
		c1.5-0.7,3.4-1.1,5.5-1.2c0.3,0,0.5,0,0.8,0c0.3,0,0.5,0,0.8,0c0.3,0,0.5,0,0.8,0.1c0.3,0,0.6,0.1,0.9,0.1c0.9,0.1,1.7,0.4,2.5,0.7
		c0.7,0.3,1.4,0.7,1.9,1.3c0.3,0.3,0.5,0.6,0.7,0.9c0.5,0.7,0.8,1.7,0.9,2.9c0,0.3,0,0.5,0,0.8c0,0.6-0.1,1.3-0.1,1.9
		c-0.1,0.6-0.2,1.2-0.4,1.9c0,0.1,0,0.2-0.1,0.3c-0.4-0.7-1-1.2-1.7-1.6c-0.3-0.2-0.6-0.3-1-0.4c-0.4-0.1-0.9-0.3-1.3-0.3
		c-0.4-0.1-0.8-0.1-1.2-0.2c-0.2,0-0.4,0-0.6,0c-0.7,0-1.4,0.1-2.1,0.2c-1.3,0.3-2.5,1.1-3.3,2.2c-1.2,1.6-1.8,3.4-1.8,5.3
		c0,1.7,0.5,3.3,1.6,4.7c0.9,1.1,2.2,1.8,4.1,2c0.4,0,0.8,0.1,1.2,0.1c0.9,0,1.9-0.2,2.8-0.4c0.5-0.2,1-0.4,1.4-0.7
		c0.4-0.3,0.8-0.6,1.2-1.1c0.8-0.9,1.6-2.2,2.2-3.8c0.3-0.6,0.5-1.3,0.7-1.9c0.4-1.3,0.8-2.7,1.2-4.4l5-22.1
		c-0.9,1.2-1.9,2.3-3.1,3.3c-1.2,1-2.5,1.9-3.8,2.6c-2.5,1.2-5.2,1.9-8,1.9c-0.1,0-0.2,0-0.3,0c-1.8,0-3.5-0.2-5.2-0.7
		c-0.9-0.3-1.8-0.6-2.6-1c-2.4-1.1-4.4-2.8-6.1-4.9c-1.1-1.3-2-2.8-2.7-4.4c-0.5-1.1-0.9-2.2-1.3-3.4c-0.5-1.7-0.9-3.5-1.1-5.3
		C0.1,42.9,0,41.2,0,39.4c0-5.1,0.8-10,2.5-14.7s4-8.9,7.1-12.6S16.5,5.6,21,3.4c3.5-1.7,7.3-2.8,11.1-3.1c1.3-0.1,2.5-0.2,3.8-0.2
		c2.3,0,4.6,0.2,6.9,0.7c1.3,0.3,2.7,0.7,3.9,1.2c0.7,0.3,1.5,0.7,2.1,1.1c1.8,1.1,3.2,2.5,4.2,4.2c0.6,1,1,2.2,1.3,3.3
		c0.2,1,0.3,2.1,0.3,3.2c0,1.1-0.1,2.3-0.4,3.4c-0.3,1-0.7,1.9-1.2,2.8c-0.8,1.3-2.1,2.2-3.5,2.5c-0.6,0.1-1.2,0.2-1.9,0.2
		c-0.3,0-0.6,0-1,0c-0.2,0-0.4,0-0.5-0.1c-0.6-0.1-1.2-0.2-1.9-0.4c-0.6-0.2-1.1-0.4-1.6-0.6c-0.1,0-0.2-0.1-0.3-0.2
		c-0.6-0.3-1.2-0.8-1.7-1.3c0.5-0.2,1-0.5,1.5-1c0.1-0.1,0.1-0.1,0.2-0.2c0.4-0.5,0.7-1,1-1.5c0.1-0.2,0.2-0.4,0.4-0.7
		c0.4-0.8,0.7-1.7,0.9-2.6c0.2-0.8,0.3-1.6,0.3-2.3c0-0.1,0-0.1,0-0.2c0-0.1,0-0.2,0-0.3c0-0.3-0.1-0.7-0.1-1.2
		C45,9.4,44.7,8.7,44.2,8c-0.5-0.7-1.2-1.3-2.1-1.8c-0.4-0.2-0.8-0.4-1.2-0.5c-0.4-0.1-0.8-0.2-1.3-0.2c-0.5,0-0.9-0.1-1.4-0.1
		c-3.1,0-6.1,1-8.9,3c-2,1.5-3.9,3.3-5.4,5.3c-0.7,0.8-1.3,1.7-1.8,2.6c-2.1,3.2-3.7,6.9-4.9,10.9c-1.2,4-1.8,8-1.8,12
		c0,1.5,0.1,3,0.3,4.5c0.4,3.1,1.2,5.6,2.5,7.5c1.9,2.8,4.1,4.3,6.7,4.2c0.9,0,1.7-0.2,2.5-0.5c0.6-0.2,1.2-0.5,1.8-0.8
		c0.7-0.4,1.3-0.9,1.9-1.4c0.6-0.5,1.2-1.1,1.8-1.8c0.2-0.3,0.5-0.5,0.7-0.8c0.7-0.8,1.3-1.7,1.8-2.6c0.8-1.3,1.5-2.7,2.2-4.2
		c0.6-1.3,1.1-2.6,1.6-4c0.5-1.4,0.9-2.9,1.3-4.5C40.6,34.3,40.8,33.7,40.9,33.2z"/>
	<path id="_x31_" vector-effect="non-scaling-stroke" class="st0" d="M62.6,25.2H77l-1.4,6.1c1.9-1.9,3.9-3.5,6.1-4.8c0,0,0,0,0,0
		c2-1.3,6-1.3,6-1.3s0,0,0.1,0c0.7,0,1.4,0.1,2.1,0.3c1.2,0.3,2.3,1,3,2c1.2,1.5,1.7,3.2,1.7,5.1c0,0.8-0.1,1.7-0.4,2.5
		c0,0,0,0.1,0,0.1c-0.3,0.9-0.7,1.6-1.3,2.3c-0.5,0.6-1.2,1.1-1.9,1.5c-0.2,0.1-0.4,0.2-0.6,0.3c-0.3,0.2-0.7,0.3-1.1,0.3
		c-0.6,0.1-1.2,0.2-1.8,0.2c-1.4,0-2.3-0.3-2.8-1c-0.5-0.7-0.8-1.4-1-2.1s-0.4-1.5-0.5-2.1c0-0.2-0.1-0.3-0.2-0.5
		c-0.2-0.3-0.6-0.5-1.1-0.5c-1.2,0-2.3,0.3-3.4,1c-0.1,0-0.1,0.1-0.2,0.1c-0.5,0.3-1,0.7-1.5,1.1c-0.5,0.4-1,0.8-1.6,1.3
		c-0.2,0.2-0.4,0.3-0.6,0.5l-7.9,37.6H52L62.6,25.2z"/>
	<path id="_x32_" vector-effect="non-scaling-stroke" class="st0" d="M127,25.2h14.5l-7.3,33.9c-0.1,0.6-0.3,1.2-0.3,1.8
		c-0.1,0.4-0.1,0.9-0.1,1.3c0,0.3,0,0.7,0.1,1c0.1,0.8,0.4,1.4,0.8,1.8c0,0,0.1,0.1,0.1,0.1c0.3,0.2,0.6,0.4,0.9,0.5
		c0.6,0.2,1.3,0.3,2.2,0.3c1.7,0,3.2-0.7,4.4-1.9c0.2-0.2,0.4-0.4,0.6-0.6c0.8-1,1.5-2.1,2-3.2c0.5-1,0.8-2,1.1-3.1h4.2
		c-0.5,1.4-1,2.7-1.6,4c-0.6,1.2-1.1,2.4-1.7,3.4c-0.4,0.8-0.9,1.5-1.4,2.2c-1.8,2.4-3.6,4.2-5.4,5.4c-0.8,0.5-1.5,1-2.4,1.4
		c-1,0.5-2,0.8-3,1c-0.7,0.1-1.4,0.2-2.1,0.3c-0.9,0.1-1.7,0.2-2.5,0.2c-1,0-2-0.1-2.9-0.3c-1.4-0.3-2.7-1-3.7-1.9
		c-1.6-1.4-2.6-3.4-3.1-6c0-0.2-0.1-0.3-0.1-0.5c-0.5,0.8-1.1,1.6-1.7,2.3c-0.3,0.4-0.6,0.7-0.9,1.1c-1,1.1-2.1,2.1-3.3,3
		c-0.7,0.5-1.4,0.9-2.2,1.3c-1.5,0.7-4.1,1.5-5.7,1.5c-0.3,0-0.6,0-1,0c-1.7,0-3.4-0.3-4.9-0.8c-1.4-0.5-2.7-1.3-3.8-2.4
		c0,0,0,0,0,0c-1-0.9-1.8-1.9-2.4-3.1c-0.4-0.7-0.7-1.4-1-2.2c-0.6-1.6-0.9-3.6-1.1-5.9c0-0.5,0-1.1,0-1.6c0-1.4,0.1-2.8,0.2-4.2
		c0.1-1,0.3-2.1,0.5-3.1c0.5-2.6,1.2-5.2,2.1-7.8s2.1-5.1,3.5-7.5c1.4-2.4,3.1-4.5,5-6.3c1.9-1.8,4.1-3.3,6.4-4.4
		c2.4-1.1,5-1.6,7.9-1.6c0.5,0,1,0,1.6,0.1c0.3,0,0.7,0.1,1,0.1c0.7,0.1,1.4,0.3,2.1,0.5c0.1,0.1,0.2,0.1,0.4,0.2
		c0.7,0.4,1.4,0.9,1.9,1.5c0,0,0,0,0.1,0.1c0.3,0.4,0.6,0.8,0.7,1.3c0.2,0.4,0.3,0.8,0.4,1.3c0,0.1,0,0.1,0,0.2L127,25.2z
		 M120.2,57.1l4.8-22.6c0-0.1,0-0.2,0-0.3c0-0.2-0.1-0.4-0.2-0.7c0,0,0-0.1,0-0.1c-0.2-0.4-0.3-0.8-0.6-1.1c0-0.1-0.1-0.1-0.1-0.2
		c-0.2-0.3-0.4-0.5-0.7-0.7c-0.2-0.1-0.3-0.3-0.5-0.4c-0.2-0.1-0.5-0.3-0.8-0.3c-0.3-0.1-0.7-0.1-1.2-0.1c-1.5,0-2.9,0.5-4.1,1.4
		c-0.6,0.5-1.2,1-1.7,1.6c-1.1,1.3-2.1,2.6-2.9,4.1c-0.6,1-1.1,2.1-1.5,3.1c-1.2,2.8-2.1,5.8-2.8,9c-0.5,2.4-0.8,4.6-0.9,6.5
		c0,0.6-0.1,1.1-0.1,1.7c0,0.5,0,1.1,0,1.6c0.1,1,0.2,1.9,0.4,2.6c0,0.1,0.1,0.2,0.1,0.3c0.1,0.3,0.2,0.6,0.4,0.9
		c0.1,0.3,0.3,0.6,0.4,0.8c0.1,0.2,0.3,0.4,0.5,0.6c0.2,0.2,0.4,0.4,0.6,0.5c0.3,0.2,0.6,0.3,1,0.4c0.6,0.1,1.1,0.2,1.6,0.2
		c0.7,0,1.5-0.2,2.3-0.5c0,0,0,0,0.1,0c0.5-0.2,1-0.5,1.4-0.8c0.4-0.3,0.7-0.5,1-0.8c0.5-0.5,1-1,1.4-1.6c0.2-0.4,0.5-0.7,0.7-1.1
		c0.4-0.7,0.6-1.3,0.9-2C119.9,58.3,120.1,57.7,120.2,57.1z"/>
	<path id="_x33_" vector-effect="non-scaling-stroke" class="st0" d="M146,56.8l10.7-50.1l14.8-2l-4.8,22.5c1.7-1.1,3.1-1.8,4.3-2.2
		c0.2-0.1,0.4-0.2,0.6-0.2c0.5-0.2,1-0.3,1.6-0.4c0.5-0.1,1.1-0.2,1.6-0.2c0.1,0,0.1,0,0.2,0c1.7,0,3.3,0.3,4.8,0.9
		c1,0.4,2,1,2.7,1.8c0.4,0.4,0.7,0.8,1.1,1.2c0.5,0.7,0.9,1.4,1.3,2.2c0.3,0.7,0.6,1.5,0.9,2.3c0.1,0.3,0.2,0.6,0.2,0.9
		c0.2,1,0.4,1.9,0.6,2.9c0.2,1.5,0.3,3.3,0.3,5.2c0,1.8-0.2,3.8-0.5,6.1c0,0.2,0,0.3-0.1,0.5c-0.3,2.2-0.8,4.3-1.5,6.4
		c-0.1,0.3-0.2,0.7-0.3,1c-0.9,2.5-2,5-3.4,7.3c-1.4,2.4-3.1,4.5-5.1,6.3c-1.8,1.6-3.8,2.9-6,4c-0.4,0.2-0.7,0.3-1.1,0.5
		c-1.6,0.6-3.2,1.1-4.9,1.4c-1.5,0.2-3,0.3-4.5,0.3c-3.2,0-5.8-0.5-7.9-1.6c-0.9-0.5-1.8-1.1-2.5-1.8c-1.6-1.6-2.8-3.6-3.2-5.9
		c-0.2-1.2-0.4-2.3-0.4-3.5C145.3,60.6,145.5,58.7,146,56.8z M165.4,33.6L159.9,59c-0.1,0.5-0.2,1-0.3,1.5c0,0.3,0,0.6,0,0.8
		c0,3.1,1.8,4.6,5.3,4.6c1.5,0,2.8-0.6,4.2-1.9c0.1-0.1,0.3-0.3,0.4-0.4c0.8-0.9,1.5-1.8,2.1-2.8c0.6-0.9,1.1-2,1.6-3.1c0,0,0,0,0,0
		c0.8-1.7,1.4-3.5,1.9-5.3c0.2-0.9,0.5-1.8,0.6-2.7c0.4-1.7,0.6-3.5,0.8-5.2c0.1-1,0.1-2,0.1-3.1c0-1.2-0.1-2.4-0.3-3.6
		c-0.1-0.6-0.3-1.2-0.4-1.8c-0.2-0.4-0.3-0.9-0.6-1.3c-0.2-0.4-0.5-0.8-0.8-1.2c-0.3-0.4-0.6-0.7-0.9-1c-0.7-0.5-1.4-0.8-2.3-0.8
		c-0.1,0-0.2,0-0.3,0c-0.2,0-0.5,0-0.8,0.1c-0.1,0-0.1,0-0.2,0c-0.6,0.1-1.1,0.2-1.7,0.3c-0.6,0.1-1.1,0.3-1.6,0.5
		C166.1,33,165.7,33.3,165.4,33.6z"/>
	<path class="st0" d="M197.2,25.2h14.4l-7.2,33.9c-0.1,0.6-0.3,1.2-0.3,1.8c-0.1,0.4-0.1,0.9-0.1,1.3c0,0.3,0,0.7,0.1,1
		c0.1,0.8,0.4,1.4,0.8,1.8c0,0,0.1,0.1,0.1,0.1c0.3,0.2,0.6,0.4,0.9,0.5c0.7,0.2,1.5,0.3,2.5,0.3c0.7,0,1.9-0.3,2.6-0.7
		c0.9-0.5,1.7-1.1,2.5-1.8c1.3-1.3,2.3-2.9,3-4.6c0.2-0.5,0.4-1.1,0.6-1.6h4.2c-0.5,1.4-1,2.8-1.7,4.2c-1,2.2-2.1,4-3.2,5.5
		c-0.7,0.9-1.5,1.8-2.3,2.7c-0.8,0.9-1.7,1.6-2.5,2.3c-0.3,0.2-0.6,0.4-0.9,0.6c-0.8,0.6-1.7,1.1-2.6,1.5c-1,0.5-2,0.8-2.9,1
		c0,0-0.1,0-0.1,0c-0.6,0.1-1.3,0.3-2,0.4c-1,0.2-2,0.2-2.8,0.2c-1.4,0-2.8-0.2-4.1-0.7c-1.3-0.5-2.5-1.2-3.5-2.2
		c-1-0.9-1.8-2.1-2.2-3.4c-0.6-1.6-0.9-3.5-0.9-5.7c0-1.4,0.2-2.9,0.5-4.7c0.1-0.6,0.2-1.2,0.3-1.8L197.2,25.2z"/>
	<path class="st1" d="M201.8,5.6c-1.1,1.1-1.9,2.5-2.2,4.1c-0.1,0.6-0.1,1.1-0.1,1.7c0,2.1,0.8,4.1,2.3,5.5c0.6,0.6,1.3,1.1,2,1.5
		c1.1,0.6,2.4,0.9,3.6,0.8l0,0c1.2,0,2.5-0.2,3.6-0.8c1-0.5,1.8-1.2,2.5-1.9c1-1.1,1.6-2.4,1.8-3.9c0.1-0.5,0.1-1,0.1-1.4
		c0-2.1-0.9-4.1-2.4-5.6c0,0,0,0-0.1-0.1c-1.5-1.5-3.5-2.3-5.6-2.3c-0.1,0-0.1,0-0.2,0C205.2,3.2,203.2,4.1,201.8,5.6L201.8,5.6z"/>
	<path id="_x35_" vector-effect="non-scaling-stroke" class="st0" d="M226.9,11.4l14.8-2l-3.4,15.8h6l-0.8,4h-6l-6.4,29.9
		c-0.1,0.6-0.3,1.2-0.3,1.8c-0.1,0.4-0.1,0.9-0.1,1.3c0,0.3,0,0.7,0.1,1c0.1,0.8,0.4,1.4,0.8,1.8c0,0,0.1,0.1,0.1,0.1
		c0.3,0.2,0.6,0.4,0.9,0.5c0.7,0.2,1.5,0.3,2.5,0.3c0.7,0,1.9-0.3,2.6-0.7c0.9-0.5,1.7-1.1,2.5-1.8c1.3-1.3,2.3-2.9,3-4.6
		c0.2-0.5,0.4-1.1,0.6-1.6h4.2c-0.5,1.4-1,2.8-1.7,4.2c-1,2.2-2.1,4-3.2,5.5c-0.7,0.9-1.5,1.8-2.3,2.7c-0.8,0.9-1.7,1.6-2.5,2.3
		c-0.3,0.2-0.6,0.4-0.9,0.6c-0.8,0.6-1.7,1.1-2.6,1.5c-1,0.5-2,0.8-2.9,1c0,0-0.1,0-0.1,0c-0.6,0.1-1.3,0.3-2,0.4
		c-1,0.2-2,0.2-2.8,0.2c-1.4,0-2.8-0.2-4.1-0.7c-1.3-0.5-2.5-1.2-3.5-2.2c-1-0.9-1.8-2.1-2.2-3.4c-0.6-1.6-0.9-3.5-0.9-5.7
		c0-1.4,0.2-2.9,0.5-4.7c0.1-0.6,0.2-1.2,0.3-1.8l6-28h-3.3l0.8-4h3.3L226.9,11.4z"/>
	<path id="_x36_" vector-effect="non-scaling-stroke" class="st0" d="M253.6,11.4l14.8-2L265,25.2h6l-0.8,4h-6l-6.4,29.9
		c-0.1,0.6-0.3,1.2-0.3,1.8c-0.1,0.4-0.1,0.9-0.1,1.3c0,0.3,0,0.7,0.1,1c0.1,0.8,0.4,1.4,0.8,1.8c0,0,0.1,0.1,0.1,0.1
		c0.3,0.2,0.6,0.4,0.9,0.5c0.7,0.2,1.5,0.3,2.5,0.3c0.7,0,1.9-0.3,2.6-0.7c0.9-0.5,1.7-1.1,2.5-1.8c1.3-1.3,2.3-2.9,3-4.6
		c0.2-0.5,0.4-1.1,0.6-1.6h4.2c-0.5,1.4-1,2.8-1.7,4.2c-1,2.2-2.1,4-3.2,5.5c-0.7,0.9-1.5,1.8-2.3,2.7c-0.8,0.9-1.7,1.6-2.5,2.3
		c-0.3,0.2-0.6,0.4-0.9,0.6c-0.8,0.6-1.7,1.1-2.6,1.5c-1,0.5-2,0.8-2.9,1c0,0-0.1,0-0.1,0c-0.6,0.1-1.3,0.3-2,0.4
		c-1,0.2-2,0.2-2.8,0.2c-1.4,0-2.8-0.2-4.1-0.7c-1.3-0.5-2.5-1.2-3.5-2.2c-1-0.9-1.8-2.1-2.2-3.4c-0.6-1.6-0.9-3.5-0.9-5.7
		c0-1.4,0.2-2.9,0.5-4.7c0.1-0.6,0.2-1.2,0.3-1.8l6-28h-3.3l0.8-4h3.3L253.6,11.4z"/>
</g>
</svg>
