<?xml version="1.0" encoding="UTF-8" standalone="no" ?>
<!DOCTYPE svg PUBLIC "-//W3C//DTD SVG 1.1//EN" "http://www.w3.org/Graphics/SVG/1.1/DTD/svg11.dtd">
<svg xmlns="http://www.w3.org/2000/svg" xmlns:xlink="http://www.w3.org/1999/xlink" version="1.1" width="336" height="500" viewBox="0 0 336 500" xml:space="preserve">
<desc>Created with Fabric.js 4.6.0</desc>
<defs>
</defs>
<g transform="matrix(1.17 0 0 1.17 187.32 61.69)" id="Qh8ewV150dGbL_maIgvLi"  >
<path style="stroke: none; stroke-width: 1; stroke-dasharray: none; stroke-linecap: butt; stroke-dashoffset: 0; stroke-linejoin: miter; stroke-miterlimit: 4; fill: rgb(47,46,65); fill-rule: nonzero; opacity: 1;" vector-effect="non-scaling-stroke"  transform=" translate(-31, -31)" d="M 0 31 C 0 13.879169999999998 13.87917 0 31 0 C 48.12083 0 62 13.87917 62 31 C 62 48.12083 48.12083 62 31 62 C 13.879169999999998 62 0 48.12083 0 31 z" stroke-linecap="round" />
</g>
<g transform="matrix(1.17 0 0 1.17 80.69 180.99)" id="2k3jQBiAFii7TfhG4VyeN"  >
<path style="stroke: none; stroke-width: 1; stroke-dasharray: none; stroke-linecap: butt; stroke-dashoffset: 0; stroke-linejoin: miter; stroke-miterlimit: 4; fill: rgb(255,184,184); fill-rule: nonzero; opacity: 1;" vector-effect="non-scaling-stroke"  transform=" translate(-766.79, -474.23)" d="M 720.44751 513.47105 C 723.4120469273503 514.6195405154308 726.7330299613993 514.395945830328 729.5168584927151 512.8604301625827 C 732.3006870240307 511.3249144948374 734.2614020560695 508.6352082917764 734.87142 505.51505 L 820.10849 451.73657 L 804.5942699999999 434.26957 L 725.6508399999999 492.66044999999997 C 720.222038548324 491.9679130163514 715.1332406169405 495.44526013817404 713.8057318139939 500.7546116102032 C 712.4782230110472 506.0639630822323 715.3316091146529 511.52711191196886 720.4475099999999 513.47109 Z" stroke-linecap="round" />
</g>
<g transform="matrix(1.17 0 0 1.17 139.41 142.15)" id="RafGNcVpEHh3ON5yHQrNJ"  >
<path style="stroke: none; stroke-width: 1; stroke-dasharray: none; stroke-linecap: butt; stroke-dashoffset: 0; stroke-linejoin: miter; stroke-miterlimit: 4; fill: rgb(47,46,65); fill-rule: nonzero; opacity: 1;" vector-effect="non-scaling-stroke"  transform=" translate(-817.11, -440.95)" d="M 802.31342 466.03418 C 800.7802243180488 466.03678672166376 799.350999174492 465.2592981304108 798.5202099999999 463.97069999999997 L 788.6496 448.63183999999995 C 787.3563103345358 446.62130999872835 787.8605210775291 443.9504891947801 789.79779 442.54983999999996 L 822.8277899999999 418.67683999999997 C 827.1912982608762 415.5227171454053 832.9242176134693 414.9892573323263 837.7947662207627 417.28413240269634 C 842.665314828056 419.5790074730663 845.903828516374 424.3395718057986 846.2495785742186 429.71257396679886 C 846.5953286320633 435.0855761277991 843.9936782096614 440.2219521610663 839.4574299999999 443.12215 L 804.72818 465.32723 C 804.00764225438 465.78942493070423 803.1694564449061 466.0348138960703 802.31342 466.03418 Z" stroke-linecap="round" />
</g>
<g transform="matrix(1.17 0 0 1.17 128.8 456.35)" id="ccZq_p-qoqVDyD0n7EJmS"  >
<path style="stroke: none; stroke-width: 1; stroke-dasharray: none; stroke-linecap: butt; stroke-dashoffset: 0; stroke-linejoin: miter; stroke-miterlimit: 4; fill: rgb(255,184,184); fill-rule: nonzero; opacity: 1;" vector-effect="non-scaling-stroke"  transform=" translate(-576.85, -557.21)" d="M 585.894 580.85 L 573.635 580.849 L 567.802 533.561 L 585.897 533.562 z" stroke-linecap="round" />
</g>
<g transform="matrix(1.17 0 0 1.17 119.93 488.54)" id="6yTCr0wXZ9_MBk2UT1kk2"  >
<path style="stroke: none; stroke-width: 1; stroke-dasharray: none; stroke-linecap: butt; stroke-dashoffset: 0; stroke-linejoin: miter; stroke-miterlimit: 4; fill: rgb(47,46,65); fill-rule: nonzero; opacity: 1;" vector-effect="non-scaling-stroke"  transform=" translate(-569.26, -584.79)" d="M 564.8774 577.34625 L 588.52127 577.34625 L 588.52127 592.2331200000001 L 549.99054 592.2331200000001 L 549.99054 592.2331200000001 C 549.990537347834 588.2848775134574 551.5589687095681 584.4983438526442 554.3507968078898 581.7065138789586 C 557.1426249062114 578.914683905273 560.9291575134564 577.3462499999991 564.8774 577.34625 Z" stroke-linecap="round" />
</g>
<g transform="matrix(1.17 0 0 1.17 188.51 448.62)" id="AONEt91cXWoC_fAv_rjfO"  >
<path style="stroke: none; stroke-width: 1; stroke-dasharray: none; stroke-linecap: butt; stroke-dashoffset: 0; stroke-linejoin: miter; stroke-miterlimit: 4; fill: rgb(255,184,184); fill-rule: nonzero; opacity: 1;" vector-effect="non-scaling-stroke"  transform=" translate(-628.03, -550.58)" d="M 643.128 571.684 L 631.3240000000001 574.9979999999999 L 612.926 531.0469999999999 L 630.3470000000001 526.156 z" stroke-linecap="round" />
</g>
<g transform="matrix(1.12 -0.32 0.32 1.12 188.69 482.92)" id="axJQZxUOl7vKoSSXtT9ft"  >
<path style="stroke: none; stroke-width: 1; stroke-dasharray: none; stroke-linecap: butt; stroke-dashoffset: 0; stroke-linejoin: miter; stroke-miterlimit: 4; fill: rgb(47,46,65); fill-rule: nonzero; opacity: 1;" vector-effect="non-scaling-stroke"  transform=" translate(-859.34, -732.97)" d="M 854.96246 725.53151 L 878.60633 725.53151 L 878.60633 740.4183800000001 L 840.0756 740.4183800000001 L 840.0756 740.4183800000001 C 840.075597347834 736.4701375134574 841.6440287095681 732.6836038526442 844.4358568078898 729.8917738789586 C 847.2276849062114 727.099943905273 851.0142175134564 725.5315099999991 854.96246 725.53151 Z" stroke-linecap="round" />
</g>
<g transform="matrix(1.17 0 0 1.17 235.55 334.39)" id="aficDnWvCrsVPv_UOyU4J"  >
<path style="stroke: none; stroke-width: 1; stroke-dasharray: none; stroke-linecap: butt; stroke-dashoffset: 0; stroke-linejoin: miter; stroke-miterlimit: 4; fill: rgb(108,99,255); fill-rule: nonzero; opacity: 1;" vector-effect="non-scaling-stroke"  transform=" translate(-899.5, -605.69)" d="M 907.32709 652.11328 L 859.73109 595.9423800000001 L 888.61244 560.89844 C 889.470148530708 559.8578299263472 890.7493612473883 559.2567695521311 892.0978854268667 559.2607427622652 C 893.4464096063451 559.2647159723992 894.7220582885724 559.8733038358185 895.57362 560.91895 L 939.27528 614.55273 Z" stroke-linecap="round" />
</g>
<g transform="matrix(1.17 0 0 1.17 217.05 304.59)" id="j4XDjHHV_v2nKBsoOkPsM"  >
<path style="stroke: none; stroke-width: 1; stroke-dasharray: none; stroke-linecap: butt; stroke-dashoffset: 0; stroke-linejoin: miter; stroke-miterlimit: 4; fill: rgb(242,242,242); fill-rule: nonzero; opacity: 1;" vector-effect="non-scaling-stroke"  transform=" translate(-883.64, -580.15)" d="M 861.6514 596.36047 L 861.6514 596.36047 C 862.3530329431263 595.0975380094695 863.2230810231815 593.9358400570034 864.2376499999999 592.90728 L 891.8048799999999 564.95977 C 892.8851044197443 563.8590637179535 894.3403304065217 563.2056794606782 895.8806799999999 563.12977 C 899.0305999999998 562.98104 904.1964199999999 563.29931 905.6363299999998 566.75514 L 868.4183299999999 597.20625 Z" stroke-linecap="round" />
</g>
<g transform="matrix(1.17 0 0 1.17 244.45 343.75)" id="AVFP6hv7X12nI3HufbtEJ"  >
<path style="stroke: none; stroke-width: 1; stroke-dasharray: none; stroke-linecap: butt; stroke-dashoffset: 0; stroke-linejoin: miter; stroke-miterlimit: 4; fill: rgb(108,99,255); fill-rule: nonzero; opacity: 1;" vector-effect="non-scaling-stroke"  transform=" translate(-907.12, -613.71)" d="M 908.98114 663.999 C 906.8585182643208 663.9357161491633 904.7954888697333 663.2823902650465 903.02338 662.11228 L 902.89179 661.97654 L 859.30024 595.3076 L 866.53363 594.60838 L 905.30024 564.3701 C 906.2897111848647 563.598423905422 907.5564225744831 563.2748841754773 908.7947550708901 563.4775411491128 C 910.0330875672971 563.6801981227482 911.1305833780725 564.3906477316383 911.82245 565.4374799999999 L 954.19867 629.5751799999999 C 955.55172858005 631.6361102267642 955.000519475657 634.401474655478 952.9606699999999 635.7861099999999 L 911.9545599999999 663.4364999999999 C 911.0085862553998 663.8126807292833 909.9991560753082 664.0036407942259 908.98114 663.999 Z" stroke-linecap="round" />
</g>
<g transform="matrix(1.17 0 0 1.17 240.69 331.87)" id="ht5jUcBPGZpjXPRfvNbkF"  >
<path style="stroke: none; stroke-width: 1; stroke-dasharray: none; stroke-linecap: butt; stroke-dashoffset: 0; stroke-linejoin: miter; stroke-miterlimit: 4; fill: rgb(63,61,86); fill-rule: nonzero; opacity: 1;" vector-effect="non-scaling-stroke"  transform=" translate(-903.9, -603.53)" d="M 893.56391 618.39355 C 892.7309876583591 618.3951613812667 891.9519985553096 617.9817316827082 891.48651 617.29102 L 886.4787 609.85254 C 885.7093866289896 608.706587388449 886.01253087908 607.1541886089922 887.15644 606.38184 L 912.8475999999999 589.08594 C 913.9935920705636 588.3176396560126 915.5450980973383 588.6206478830438 916.3178099999999 589.76367 L 921.3253799999999 597.2021500000001 C 922.0946953432288 598.3481000150499 921.7915556842377 599.900498189043 920.6476499999999 600.67285 L 894.9564899999999 617.96875 C 894.5449662615308 618.2458873650854 894.0600519552734 618.3938082007272 893.56391 618.39355 Z" stroke-linecap="round" />
</g>
<g transform="matrix(1.17 0 0 1.17 151.39 327.95)" id="uA7xvd5g38Lyk7JV9KFX3"  >
<path style="stroke: none; stroke-width: 1; stroke-dasharray: none; stroke-linecap: butt; stroke-dashoffset: 0; stroke-linejoin: miter; stroke-miterlimit: 4; fill: rgb(47,46,65); fill-rule: nonzero; opacity: 1;" vector-effect="non-scaling-stroke"  transform=" translate(-827.38, -600.17)" d="M 797.02948 726.69824 C 794.1952295617175 726.6879970963557 791.8365894942457 724.5179278459398 791.59076 721.69434 C 789.4088800000001 696.90918 778.46405 571.99414 777.26264 546.76758 C 775.92816 518.7382799999999 799.25531 474.39647999999994 799.4911500000001 473.95214999999996 L 799.6525300000001 473.64745999999997 L 811.1823200000001 475.08788999999996 L 811.1823200000001 476.42870999999997 L 822.1566800000002 477.71970999999996 L 843.3949600000002 479.77536999999995 L 849.4752800000002 554.0937299999999 L 852.1637600000003 604.4960699999999 L 877.423 707.43945 C 878.0183974685757 709.8115596545778 876.5995754220629 712.222396705108 874.23672 712.85352 L 852.25332 718.84863 C 849.8757140271015 719.4865184476477 847.4249342221929 718.1040636424083 846.74111 715.73926 L 826.0436000000001 643.03226 C 825.8361812069293 642.3042205953697 825.11879060633 641.8448315682134 824.3707524843522 641.9610335410077 C 823.6227143623744 642.0772355138021 823.078493121933 642.7326062436581 823.1017100000001 643.48926 L 825.2907100000001 714.3847699999999 C 825.3132125180967 715.8558330366137 824.7281776959178 717.2710871074003 823.6735300000001 718.2968799999999 C 818.6344600000001 723.0292999999999 805.3200100000001 725.5556599999999 797.8322200000001 726.6406299999999 C 797.5663759060858 726.6791341711212 797.2980980032684 726.6983875906361 797.02948 726.69824 Z" stroke-linecap="round" />
</g>
<g transform="matrix(1.17 0 0 1.17 156.6 153.95)" id="7a5wTAXRVBJM13r3Mnkl-"  >
<path style="stroke: none; stroke-width: 1; stroke-dasharray: none; stroke-linecap: butt; stroke-dashoffset: 0; stroke-linejoin: miter; stroke-miterlimit: 4; fill: rgb(108,99,255); fill-rule: nonzero; opacity: 1;" vector-effect="non-scaling-stroke"  transform=" translate(-831.85, -451.06)" d="M 863.08564 414.39249 C 859.59735 410.75601 836.61249 415.75342 831.50946 421.11087000000003 L 796.57371 478.21711000000005 L 854.3518 488.96652000000006 L 867.11673 416.408 Z" stroke-linecap="round" />
</g>
<g transform="matrix(1.17 0 0 1.17 175.34 195.28)" id="gx0l6Wos-KiHOMl1DKuLr"  >
<path style="stroke: none; stroke-width: 1; stroke-dasharray: none; stroke-linecap: butt; stroke-dashoffset: 0; stroke-linejoin: miter; stroke-miterlimit: 4; fill: rgb(47,46,65); fill-rule: nonzero; opacity: 1;" vector-effect="non-scaling-stroke"  transform=" translate(-847.9, -486.49)" d="M 847.94159 559.47949 C 846.6971177946735 559.4800954998826 845.4611718534843 559.2741749104636 844.28412 558.87012 C 840.9274300000001 557.71875 836.8134200000001 556.51367 832.05658 555.29102 C 811.22284 549.93359 803.8671300000001 532.78125 810.19428 504.31055000000003 L 810.35419 503.58789 C 816.295383178401 476.5810084958782 827.493790874751 451.00746885584635 843.311 428.32520000000005 L 845.7610000000001 424.80566 C 851.8067219516286 416.12557210178574 862.4501825166114 411.89263032371883 872.8059200000001 414.0498 C 882.1801900000002 415.9834 887.2133900000001 418.78516 887.7661300000001 422.37793 C 888.8508400000001 429.42773 867.91213 514.64746 858.8593900000001 550.95993 C 857.6109112181733 555.9716123711326 853.1065035411027 559.4865771428418 847.9416600000001 559.47946 Z" stroke-linecap="round" />
</g>
<g transform="matrix(1.17 0 0 1.17 120.4 190.88)" id="dP7j-b-gr35wiLdjUpL-U"  >
<path style="stroke: none; stroke-width: 1; stroke-dasharray: none; stroke-linecap: butt; stroke-dashoffset: 0; stroke-linejoin: miter; stroke-miterlimit: 4; fill: rgb(47,46,65); fill-rule: nonzero; opacity: 1;" vector-effect="non-scaling-stroke"  transform=" translate(-800.83, -482.71)" d="M 776.17108 548.53906 C 775.6263174376584 548.538987130714 775.0848435273607 548.4546569594138 774.5658599999999 548.28906 L 767.8131699999999 546.1289099999999 C 766.4016702432979 545.6768423368721 765.2458553950202 544.6511702660897 764.629177430957 543.3034295551759 C 764.0124994668939 541.955688844262 763.9919977063284 540.4105380949511 764.5726999999999 539.0469099999999 L 800.404 454.94336 C 807.269514037027 438.8994370587439 819.2733394062869 425.59277242732514 834.52754 417.11620999999997 L 834.52778 417.11620999999997 C 834.9749226139152 416.8700658595779 835.504171197484 416.8205534872128 835.98921 416.97948999999994 C 836.435020915432 417.1214985921747 836.8000223868461 417.4453534921755 836.9940899999999 417.8710899999999 C 841.2081999999999 427.1415999999999 818.27168 471.0146499999999 799.8417499999999 506.2665999999999 C 790.4044899999999 524.31738 782.2543499999999 539.9072299999999 781.32661 544.35254 C 780.8165394070938 546.7929587852421 778.6642432430051 548.5407225291284 776.1710899999999 548.53906 Z" stroke-linecap="round" />
</g>
<g transform="matrix(1.17 0 0 1.17 210.44 222.94)" id="ivCooKGM1C549PeGOqmsq"  >
<path style="stroke: none; stroke-width: 1; stroke-dasharray: none; stroke-linecap: butt; stroke-dashoffset: 0; stroke-linejoin: miter; stroke-miterlimit: 4; fill: rgb(255,184,184); fill-rule: nonzero; opacity: 1;" vector-effect="non-scaling-stroke"  transform=" translate(-877.98, -510.18)" d="M 887.026 567.70345 C 889.5738546372761 565.8018699482717 891.148562248158 562.8694131439543 891.3263976884882 559.6951503158346 C 891.5042331288184 556.5208874877147 890.2669285192225 553.4308900326948 887.94742 551.25662 L 887.66264 450.47267 L 864.62258 454.33835999999997 L 872.15842 552.2402099999999 C 868.6878432206406 556.4718309472473 868.9307819959187 562.6304705598966 872.7239040992131 566.575561652902 C 876.5170262025074 570.5206527459075 882.6613787437765 571.0052071552634 887.026 567.70345 Z" stroke-linecap="round" />
</g>
<g transform="matrix(1.17 0 0 1.17 208.18 147.06)" id="atVy8WWjgaLEpblI_-Q2d"  >
<path style="stroke: none; stroke-width: 1; stroke-dasharray: none; stroke-linecap: butt; stroke-dashoffset: 0; stroke-linejoin: miter; stroke-miterlimit: 4; fill: rgb(47,46,65); fill-rule: nonzero; opacity: 1;" vector-effect="non-scaling-stroke"  transform=" translate(-876.04, -445.16)" d="M 868.2663 475.47656 C 865.8967739619395 475.4760177300073 863.9337609834533 473.637825914394 863.77777 471.27344 L 861.0976 430.60744 C 860.5703587672994 422.46058405421604 866.7364459931052 415.4239872389534 874.882 414.877 C 878.9415839859461 414.6096136974851 882.9320390572958 416.0263357331353 885.9141907863037 418.7937331818041 C 888.8963425153115 421.56113063047286 890.6068006712443 425.4347808340355 890.6429999999999 429.503 L 891.007 470.72272999999996 C 891.0245364636827 473.20105336737754 889.0383738652318 475.22885285306535 886.56022 475.26273 L 868.32097 475.47659 Z" stroke-linecap="round" />
</g>
<g transform="matrix(1.17 0 0 1.17 179.87 71.04)" id="fZrbQ6SV_3SLvXY8OZAsI"  >
<path style="stroke: none; stroke-width: 1; stroke-dasharray: none; stroke-linecap: butt; stroke-dashoffset: 0; stroke-linejoin: miter; stroke-miterlimit: 4; fill: rgb(255,184,184); fill-rule: nonzero; opacity: 1;" vector-effect="non-scaling-stroke"  transform=" translate(-24.56, -24.56)" d="M 0 24.56103 C 0 10.99635 10.99635 0 24.56103 0 C 38.12571 0 49.12206 10.99635 49.12206 24.56103 C 49.12206 38.12571 38.12571 49.12206 24.56103 49.12206 C 10.99635 49.12206 0 38.12571 0 24.56103 z" stroke-linecap="round" />
</g>
<g transform="matrix(1.17 0 0 1.17 188.94 63.81)" id="rg3qtusinK0aPHX60LXlT"  >
<path style="stroke: none; stroke-width: 1; stroke-dasharray: none; stroke-linecap: butt; stroke-dashoffset: 0; stroke-linejoin: miter; stroke-miterlimit: 4; fill: rgb(47,46,65); fill-rule: nonzero; opacity: 1;" vector-effect="non-scaling-stroke"  transform=" translate(-859.55, -373.82)" d="M 872.2028 397.202 C 874.03463 391.37235 875.71635 384.49871 872.09123 379.57947 C 869.47916 376.03492 864.78931 374.66290000000004 860.39066 374.46647 C 855.99201 374.27004 851.58078 375.01564 847.19159 374.66671 C 842.8024 374.31778 838.16359 372.58544 835.93395 368.78871000000004 C 833.0427599999999 363.86554 835.49148 357.08459000000005 840.1394799999999 353.76907000000006 C 844.7874799999998 350.45355000000006 850.92784 349.99060000000003 856.58471 350.7628700000001 C 863.742868800278 351.6126911129758 870.4723136457385 354.62290893122747 875.87699 359.3927000000001 C 881.13519 364.2456400000001 884.56241 371.2408100000001 884.40972 378.39458000000013 C 884.25703 385.54835000000014 880.24482 392.6723200000001 873.85082 395.8842500000001" stroke-linecap="round" />
</g>
<g transform="matrix(1.17 0 0 1.17 252.44 61.69)" id="r9OF6okUPZWqIefR02Rx4"  >
<path style="stroke: none; stroke-width: 1; stroke-dasharray: none; stroke-linecap: butt; stroke-dashoffset: 0; stroke-linejoin: miter; stroke-miterlimit: 4; fill: rgb(47,46,65); fill-rule: nonzero; opacity: 1;" vector-effect="non-scaling-stroke"  transform=" translate(-913.97, -372.01)" d="M 866.07881 343.53408 C 860.19908 341.72293 857.48704 333.94934 860.11646 328.38717 C 862.7458799999999 322.82500000000005 869.46719 319.91237 875.57057 320.68712000000005 C 881.67395 321.4618700000001 887.05201 325.37755000000004 890.76157 330.28577000000007 C 894.47113 335.1939900000001 896.7083700000001 341.0447700000001 898.57335 346.9076600000001 C 900.43833 352.77055000000007 901.9893500000001 358.7602700000001 904.53664 364.36052000000007 C 912.7636301474896 381.87320129181495 929.70708852727 393.6678869644015 948.9867 395.30311000000006 C 953.1157000000001 395.6022500000001 957.4006400000001 395.38793000000004 961.16359 393.66206000000005 C 964.9265399999999 391.93619000000007 968.08219 388.45664000000005 968.50383 384.33830000000006 C 970.64555 398.9673000000001 962.13505 414.51439000000005 948.65765 420.5934900000001 C 935.18025 426.6725900000001 917.89311 422.7617600000001 908.34465 411.4736000000001 C 899.01353 400.4423700000001 897.56838 384.8680900000001 897.79282 370.4213800000001 C 897.85437 366.4598000000001 898.00044 362.4233800000001 896.90596 358.6155100000001 C 895.8114800000001 354.80764000000005 893.2213 351.18691000000007 889.44834 349.9775100000001 C 886.40422 349.0017400000001 883.1072700000001 349.7051300000001 879.98634 350.3969300000001 C 876.86541 351.0887300000001 873.5515300000001 351.7545800000001 870.5297400000001 350.7117200000001 C 867.50795 349.66886000000017 865.0748000000001 346.23252000000014 866.2923900000001 343.27680000000015" stroke-linecap="round" />
</g>
<g transform="matrix(1.17 0 0 1.17 155.91 498.12)" id="iUPJ9zD_LoMHJGhmF3f1_"  >
<path style="stroke: none; stroke-width: 1; stroke-dasharray: none; stroke-linecap: butt; stroke-dashoffset: 0; stroke-linejoin: miter; stroke-miterlimit: 4; fill: rgb(204,204,204); fill-rule: nonzero; opacity: 1;" vector-effect="non-scaling-stroke"  transform=" translate(-831.25, -746)" d="M 963.24986 747 L 699.24986 747 C 698.6975752501692 747 698.24986 746.5522847498308 698.24986 746 C 698.24986 745.4477152501692 698.6975752501692 745 699.24986 745 L 963.24986 745 C 963.8021447498309 745 964.24986 745.4477152501692 964.24986 746 C 964.24986 746.5522847498308 963.8021447498309 747 963.24986 747 Z" stroke-linecap="round" />
</g>
</svg>